<svg width="269" height="85" viewBox="0 0 269 85" fill="none" xmlns="http://www.w3.org/2000/svg">
<path d="M90.0073 50.2876H85.8984V30.3968H100.84L100.809 33.7898H90.0073V38.9259H99.5947V41.9142H90.0073V50.2876Z" fill="white"/>
<path d="M114.298 45.3694H117.784C117.348 49.3849 113.893 50.2876 110.22 50.2876C105.457 50.2876 102.158 47.7351 102.158 42.5679C102.158 39.4551 103.745 34.7548 110.313 34.7548C115.605 34.7548 118.126 38.1788 118.002 43.4706H105.893C105.924 45.7118 107.543 47.2682 110.407 47.2682C113.239 47.2682 114.049 46.241 114.298 45.3694ZM105.955 41.5406H114.329C114.173 39.5173 112.959 38.0232 110.095 38.0232C107.73 38.0232 106.173 39.5796 105.955 41.5406Z" fill="white"/>
<path d="M125.35 50.2876H121.366V28H125.35V50.2876Z" fill="white"/>
<path d="M129.29 31.1128C129.29 30.1478 130.099 28.9338 131.749 28.9338C133.368 28.9338 134.208 30.0544 134.208 31.0505C134.208 32.0466 133.461 33.2917 131.749 33.2917C130.099 33.2917 129.29 32.1089 129.29 31.1128ZM133.741 50.2876H129.757V34.9727H133.741V50.2876Z" fill="white"/>
<path d="M142.131 56.6066H138.147V34.9415H142.038V38.3656C142.971 36.4979 144.995 34.9415 147.112 34.817C151.158 34.568 154.613 37.5874 154.613 42.6301C154.613 47.1437 151.999 50.2565 147.672 50.4432C145.368 50.5677 143.034 48.8868 142.131 47.1125V56.6066ZM146.333 47.1748C148.948 47.1748 150.598 45.1515 150.598 42.6301C150.598 40.1088 148.979 38.0854 146.333 38.0854C143.75 38.0854 142.1 40.1399 142.1 42.6301C142.1 45.1515 143.719 47.1748 146.333 47.1748Z" fill="white"/>
<path d="M169.015 45.3694H172.501C172.065 49.3849 168.61 50.2876 164.937 50.2876C160.174 50.2876 156.875 47.7351 156.875 42.5679C156.875 39.4551 158.462 34.7548 165.03 34.7548C170.322 34.7548 172.843 38.1788 172.719 43.4706H160.61C160.641 45.7118 162.26 47.2682 165.124 47.2682C167.956 47.2682 168.766 46.241 169.015 45.3694ZM160.672 41.5406H169.046C168.89 39.5173 167.676 38.0232 164.812 38.0232C162.447 38.0232 160.89 39.5796 160.672 41.5406Z" fill="white"/>
<path d="M193.521 47.0814C196.166 47.0814 198.594 46.2721 199.684 43.7507L203.948 43.7819C202.766 48.5444 198.065 50.5055 193.521 50.5055C187.606 50.5055 182.595 47.5483 182.595 40.3267C182.595 32.9493 187.606 30.179 193.521 30.179C198.937 30.179 203.201 32.5758 204.135 37.5563H199.902C199.03 34.5991 196.571 33.5719 193.521 33.5719C189.63 33.5719 186.704 35.1906 186.704 40.3267C186.704 45.3071 189.63 47.0814 193.521 47.0814Z" fill="white"/>
<path d="M205.726 42.6301C205.726 37.6808 208.621 34.817 213.975 34.817C219.329 34.817 222.223 37.7119 222.223 42.6301C222.223 48.2332 218.581 50.4432 213.975 50.4432C209.399 50.4432 205.726 48.2332 205.726 42.6301ZM213.975 47.1748C216.589 47.1748 218.364 46.1165 218.364 42.6301C218.364 39.1438 216.589 38.0854 213.975 38.0854C211.391 38.0854 209.585 39.1438 209.585 42.6301C209.585 46.0853 211.391 47.1748 213.975 47.1748Z" fill="white"/>
<path d="M239.115 39.5796H235.784C235.66 38.1477 234.104 37.6497 231.925 37.6497C230.026 37.6185 228.407 38.3033 228.563 39.6418C228.843 42.3811 239.52 39.673 239.489 45.6807C239.458 49.6028 235.66 50.5055 232.454 50.5055C227.38 50.5055 224.859 48.3577 224.796 45.1826H228.22C228.345 46.8324 230.804 47.3616 232.174 47.3927C233.357 47.455 235.971 47.1125 235.971 45.7429C235.971 43.097 224.983 45.6495 224.983 39.4239C224.983 36.28 227.504 34.5991 232.018 34.5991C236.749 34.5991 238.96 36.5291 239.115 39.5796Z" fill="white"/>
<path d="M250.459 47.0192V50.2565L247.658 50.2876C245.292 50.2876 243.767 49.416 243.767 46.5211V38.1166H241.276V35.0038H243.829V31.0505H247.751V35.0038H250.802V38.1166H247.751V45.4316C247.751 47.0503 248.031 47.0814 250.459 47.0192Z" fill="white"/>
<path d="M267.008 50.2876C265.482 50.2565 263.895 49.416 263.864 47.4861C263.179 49.3849 261.467 50.4121 259.413 50.5989C256.424 50.879 253.062 49.5717 252.845 46.3343C252.564 42.101 256.113 41.136 259.506 41.136H263.864V39.5485C263.864 38.2722 262.556 37.5874 260.502 37.5874C258.603 37.5563 257.265 38.2411 257.265 39.6418H253.716C253.623 35.9376 256.736 34.5991 260.409 34.5991C265.047 34.5991 267.786 36.3734 267.786 39.2061V46.4277C267.786 47.1125 268.097 47.5795 268.782 47.5795H269V50.2876H267.008ZM256.642 45.6184C256.518 47.2993 257.887 47.9219 259.537 47.9219C261.311 47.8907 263.428 46.8013 263.864 44.9958V43.3772L259.911 43.4083C258.416 43.4395 256.798 43.7196 256.642 45.6184Z" fill="white"/>
<path d="M38.5237 54.7581C36.2431 57.0387 33.5252 58.6344 30.647 59.5525C24.5919 61.4907 17.7791 60.4342 12.5546 56.3756L30.647 38.2832V31.3174L9.0717 52.8927C6.39755 49.4535 4.92568 45.2637 4.92568 40.8408C4.92568 35.58 6.97318 30.6397 10.6893 26.9236L30.647 6.96589V0L7.20635 23.4407C2.55756 28.0895 0 34.2684 0 40.8408C0 47.4132 2.55756 53.5922 7.20635 58.241C11.8551 62.8898 18.0341 65.4473 24.6065 65.4473C26.6759 65.4473 28.6942 65.1632 30.647 64.675C34.9096 63.6039 38.8225 61.4252 42.0067 58.241L38.5237 54.7581Z" fill="#FFD600"/>
<path d="M54.0806 26.399C49.4318 21.7502 43.2529 19.1926 36.6804 19.1926C34.6184 19.1926 32.6 19.4768 30.6472 19.965C26.3846 21.0361 22.4718 23.2148 19.2803 26.399L22.7632 29.8819C25.0075 27.6377 27.7035 26.0128 30.6472 25.0728C32.5708 24.4535 34.6038 24.1183 36.6804 24.1183C41.1033 24.1183 45.3004 25.5829 48.7323 28.2643L30.6399 46.3567V53.3226L52.2152 31.7473C54.8894 35.1865 56.3613 39.3762 56.3613 43.7991C56.3613 49.0527 54.3138 54.0002 50.5976 57.7164L30.6472 77.6668V84.6327L54.0806 61.1993C58.7294 56.5505 61.2869 50.3715 61.2869 43.7991C61.2869 37.2267 58.7294 31.0478 54.0806 26.399Z" fill="#FFD600"/>
</svg>
